<svg id="visual" viewBox="0 0 1100 600" width="1100" height="600" xmlns="http://www.w3.org/2000/svg" xmlns:xlink="http://www.w3.org/1999/xlink" version="1.1"><path d="M0 478L15.3 483C30.7 488 61.3 498 91.8 499.2C122.3 500.3 152.7 492.7 183.2 497.7C213.7 502.7 244.3 520.3 275 513.3C305.7 506.3 336.3 474.7 366.8 462.2C397.3 449.7 427.7 456.3 458.2 470.8C488.7 485.3 519.3 507.7 550 513.8C580.7 520 611.3 510 641.8 505C672.3 500 702.7 500 733.2 505.7C763.7 511.3 794.3 522.7 825 524.7C855.7 526.7 886.3 519.3 916.8 513.2C947.3 507 977.7 502 1008.2 497.8C1038.7 493.7 1069.3 490.3 1084.7 488.7L1100 487L1100 601L1084.7 601C1069.3 601 1038.7 601 1008.2 601C977.7 601 947.3 601 916.8 601C886.3 601 855.7 601 825 601C794.3 601 763.7 601 733.2 601C702.7 601 672.3 601 641.8 601C611.3 601 580.7 601 550 601C519.3 601 488.7 601 458.2 601C427.7 601 397.3 601 366.8 601C336.3 601 305.7 601 275 601C244.3 601 213.7 601 183.2 601C152.7 601 122.3 601 91.8 601C61.3 601 30.7 601 15.3 601L0 601Z" fill="#000000" stroke-linecap="round" stroke-linejoin="miter"></path></svg>