<svg id="visual" viewBox="0 0 1100 600" width="1100" height="600" xmlns="http://www.w3.org/2000/svg" xmlns:xlink="http://www.w3.org/1999/xlink" version="1.1"><path d="M0 102L15.3 88C30.7 74 61.3 46 91.8 42.7C122.3 39.3 152.7 60.7 183.2 75.5C213.7 90.3 244.3 98.7 275 99.3C305.7 100 336.3 93 366.8 79C397.3 65 427.7 44 458.2 32.8C488.7 21.7 519.3 20.3 550 31.5C580.7 42.7 611.3 66.3 641.8 68.7C672.3 71 702.7 52 733.2 45.5C763.7 39 794.3 45 825 56.2C855.7 67.3 886.3 83.7 916.8 77.2C947.3 70.7 977.7 41.3 1008.2 38C1038.7 34.7 1069.3 57.3 1084.7 68.7L1100 80L1100 0L1084.7 0C1069.3 0 1038.7 0 1008.2 0C977.7 0 947.3 0 916.8 0C886.3 0 855.7 0 825 0C794.3 0 763.7 0 733.2 0C702.7 0 672.3 0 641.8 0C611.3 0 580.7 0 550 0C519.3 0 488.7 0 458.2 0C427.7 0 397.3 0 366.8 0C336.3 0 305.7 0 275 0C244.3 0 213.7 0 183.2 0C152.7 0 122.3 0 91.8 0C61.3 0 30.7 0 15.3 0L0 0Z" fill="#000000" stroke-linecap="round" stroke-linejoin="miter"></path></svg>