<svg id="visual" viewBox="0 0 1200 600" width="1200" height="600" xmlns="http://www.w3.org/2000/svg" xmlns:xlink="http://www.w3.org/1999/xlink" version="1.1"><rect x="0" y="0" width="1200" height="600" fill="#fcabcd"></rect><defs><linearGradient id="grad1_0" x1="50%" y1="0%" x2="100%" y2="100%"><stop offset="10%" stop-color="#fcabcd" stop-opacity="1"></stop><stop offset="90%" stop-color="#fcabcd" stop-opacity="1"></stop></linearGradient></defs><defs><linearGradient id="grad2_0" x1="0%" y1="0%" x2="50%" y2="100%"><stop offset="10%" stop-color="#fcabcd" stop-opacity="1"></stop><stop offset="90%" stop-color="#fcabcd" stop-opacity="1"></stop></linearGradient></defs><g transform="translate(1200, 0)"><path d="M0 510C-19.6 500.2 -39.2 490.4 -59.1 486.4C-78.9 482.5 -98.9 484.5 -119.4 484.5C-139.9 484.5 -161 482.7 -180.8 476.9C-200.7 471.1 -219.5 461.4 -234.7 447.2C-249.9 433 -261.6 414.3 -276.6 400.8C-291.7 387.3 -310 379 -325.6 367.5C-341.2 356 -354.1 341.2 -371.3 328.9C-388.4 316.6 -409.7 306.7 -418.9 289.1C-428.1 271.6 -425.1 246.4 -433 227.2C-440.9 208.1 -459.6 194.9 -466.6 176.9C-473.6 159 -468.9 136.1 -469.9 115.8C-471 95.5 -477.8 77.8 -485.4 58.9C-493.1 40.1 -501.5 20 -510 0L0 0Z" fill="#000000"></path></g><g transform="translate(0, 600)"><path d="M0 -510C19.6 -500.1 39.2 -490.3 59.1 -486.4C79 -482.6 99.2 -484.8 118.9 -482.6C138.7 -480.3 157.9 -473.6 176.9 -466.6C196 -459.5 215 -452.1 231 -440.1C246.9 -428 259.9 -411.3 275.5 -399.1C291.1 -386.9 309.5 -379.2 326.9 -369C344.4 -358.8 361 -346.1 372 -329.6C383.1 -313 388.5 -292.6 400.8 -276.6C413 -260.7 432 -249.2 444.5 -233.3C457 -217.3 462.9 -196.9 465.6 -176.6C468.4 -156.3 468.1 -136.1 475.8 -117.3C483.5 -98.4 499.2 -80.8 506.3 -61.5C513.3 -42.1 511.7 -21.1 510 0L0 0Z" fill="#000000"></path></g></svg>