<svg id="visual" viewBox="0 0 1200 700" width="1200" height="700" xmlns="http://www.w3.org/2000/svg" xmlns:xlink="http://www.w3.org/1999/xlink" version="1.1"><path d="M743 0L731.3 23.3C719.7 46.7 696.3 93.3 683 140C669.7 186.7 666.3 233.3 662.7 280C659 326.7 655 373.3 676.5 420C698 466.7 745 513.3 727.3 560C709.7 606.7 627.3 653.3 586.2 676.7L545 700L0 700L0 676.7C0 653.3 0 606.7 0 560C0 513.3 0 466.7 0 420C0 373.3 0 326.7 0 280C0 233.3 0 186.7 0 140C0 93.3 0 46.7 0 23.3L0 0Z" fill="#000000" stroke-linecap="round" stroke-linejoin="miter"></path></svg>