<svg id="visual" viewBox="0 0 1000 450" width="1000" height="450" xmlns="http://www.w3.org/2000/svg" xmlns:xlink="http://www.w3.org/1999/xlink" version="1.1"><path d="M494 0L497.7 15C501.3 30 508.7 60 506.7 90C504.7 120 493.3 150 497.7 180C502 210 522 240 534 270C546 300 550 330 557.2 360C564.3 390 574.7 420 579.8 435L585 450L0 450L0 435C0 420 0 390 0 360C0 330 0 300 0 270C0 240 0 210 0 180C0 150 0 120 0 90C0 60 0 30 0 15L0 0Z" fill="#D6D5D6" stroke-linecap="round" stroke-linejoin="miter"></path></svg>